<svg width="892" height="626" viewBox="0 0 892 626" fill="none" xmlns="http://www.w3.org/2000/svg">
<rect x="0.925781" width="890.271" height="625.648" fill="#F8E5D3"/>
<path d="M764.787 530.173C764.913 528.024 765.389 526.403 766.239 524.896C768.947 520.103 771.534 515.234 774.431 510.556C776.002 508.037 777.861 505.71 779.971 503.622C781.71 501.894 784.159 501.866 786.467 502.617C786.981 502.784 787.421 503.134 787.748 503.589C788.678 503.951 788.892 505.05 789.291 505.725C790.679 508.016 791.229 510.718 790.848 513.37C790.8 513.726 790.37 514.238 790.045 514.308C787.933 514.756 786.389 516.072 785.081 517.624C783.549 519.432 782.128 521.331 780.827 523.311C779.019 526.079 777.341 528.936 775.69 531.792C774.362 534.09 772.693 535.757 769.811 535.327C768.922 535.214 768.075 534.883 767.346 534.363C765.874 533.224 764.606 531.866 764.787 530.173Z" fill="#693D14"/>
<path d="M771.134 512.312C768.338 518.193 764.389 523.251 763.1 529.625C762.883 529.518 762.676 529.394 762.479 529.255C759.685 526.883 756.887 524.517 754.119 522.114C753.809 521.847 753.411 521.289 753.504 521.015C754.211 518.914 755.032 516.851 755.81 514.772C756.081 514.049 756.65 513.969 757.332 513.91C761.251 513.573 765.167 513.204 769.082 512.804C769.688 512.751 770.277 512.53 771.134 512.312Z" fill="#693D14"/>
<path d="M759.888 487.721C762.592 487.781 764.784 488.562 766.385 490.533C766.847 491.099 767.04 491.895 767.297 492.608C767.357 492.771 767.222 493.068 767.096 493.229C766.059 494.488 764.96 495.697 763.968 496.987C763.349 497.79 762.735 498.108 761.642 498.058C759.449 497.957 757.241 498.142 755.039 498.234C752.938 498.325 750.841 498.453 748.74 498.542C748.634 498.545 748.529 498.524 748.432 498.48C748.336 498.436 748.251 498.371 748.184 498.289C748.147 498.185 748.135 498.074 748.148 497.965C748.16 497.855 748.198 497.75 748.258 497.658C749.549 495.938 750.847 494.223 752.181 492.536C752.812 491.732 753.535 491.005 754.19 490.228C755.335 488.882 757.002 488.536 758.543 487.996C758.983 487.866 759.433 487.774 759.888 487.721V487.721Z" fill="#693D14"/>
<path d="M765.261 498.027C765.438 497.694 765.504 497.461 765.652 497.308C766.924 496.009 768.051 494.496 769.533 493.492C771.225 492.365 773.137 492.192 775.268 493.026C777.582 493.93 778.996 495.518 780.103 497.527C780.593 498.415 780.887 499.429 781.152 500.418C781.226 500.699 780.975 501.221 780.714 501.41C779.788 502.105 778.8 502.718 777.817 503.336C777.585 503.437 777.339 503.504 777.088 503.537C777.01 503.303 776.948 503.065 776.903 502.822C776.612 500.247 775.616 498.248 772.814 498.17C770.652 498.108 768.487 498.13 766.321 498.108C766.012 498.12 765.693 498.067 765.261 498.027Z" fill="#693D14"/>
<g filter="url(#filter0_f)">
<path d="M782.507 580.787C777.887 580.787 773.277 580.808 768.663 580.787C764.798 580.765 760.931 580.663 757.064 580.643C753.925 580.627 750.785 580.675 747.644 580.707C746.364 580.721 746.183 580.466 746.237 579.195C746.338 577.128 746.33 575.057 746.382 572.99C746.404 572.124 746.466 571.258 746.511 570.392C746.613 568.384 746.711 566.375 746.818 564.366C746.821 563.904 746.87 563.442 746.967 562.99C747.473 561.134 746.513 559.435 746.426 557.643C746.398 557.409 746.307 557.186 746.165 556.998C744.297 554.278 742.561 551.494 741.143 548.501C739.964 546.018 738.508 543.67 737.234 541.231C735.477 537.867 733.715 534.504 732.072 531.083C731.152 529.167 731.126 527.118 731.628 525.023C732.277 522.307 733.562 519.871 734.725 517.374C735.808 515.052 736.768 512.667 737.955 510.399C739.534 507.388 741.218 504.434 743.005 501.539C743.327 501.019 744.313 500.886 745.014 500.621C747.925 499.512 750.982 499.922 753.981 499.803C758.386 499.628 762.797 499.512 767.217 499.456C768.986 499.421 770.724 499.24 772.481 499.456C774.128 499.669 774.944 501.085 775.278 502.726C775.744 505.034 774.96 506.966 773.628 508.69C772.552 510.08 770.937 510.879 769.245 511.135C765.455 511.705 761.634 512.089 757.822 512.497C756.966 512.589 756.076 512.382 755.224 512.497C754.997 512.544 754.783 512.642 754.598 512.784C754.414 512.926 754.264 513.108 754.16 513.316C753.25 515.787 752.426 518.29 751.581 520.783C751.217 521.853 751.448 522.508 752.406 523.175C755.837 525.565 759.236 528.018 762.004 531.178C763.774 533.203 765.463 535.354 766.825 537.662C767.918 539.502 768.47 541.663 769.253 543.688C769.488 544.291 769.707 545.05 770.541 544.693C771.248 544.391 771.345 543.652 771.059 542.963C770.332 541.179 769.591 539.401 768.816 537.64C768.573 537.085 768.719 536.794 769.266 536.698C769.596 536.618 769.94 536.618 770.27 536.698C771.367 537.067 772.365 536.804 773.389 536.406C774.358 536.029 774.534 536.192 774.516 537.262C774.454 540.878 778.556 544.484 781.9 543.734C782.352 543.627 782.773 543.421 783.136 543.132C785.791 540.986 788.154 538.503 790.166 535.746C790.556 535.215 791.01 534.727 791.436 534.223C791.862 533.719 791.675 533.337 791.247 533.018C790.785 532.676 790.422 532.793 790.084 533.291C788.009 536.342 785.665 539.158 782.754 541.46C781.201 542.692 778.938 542.465 777.517 540.396C775.91 538.032 775.603 535.488 776.989 532.749C779.187 528.408 781.927 524.424 784.721 520.479C786.422 518.079 788.555 516.12 791.575 515.401C793.328 514.983 795.688 516.048 796.546 517.709C797.026 518.637 797.627 519.517 798.025 520.469C799.029 522.892 799.431 525.439 799.449 528.062C799.467 530.085 799.714 532.11 799.682 534.131C799.628 537.391 799.509 540.655 799.256 543.905C799.085 546.115 797.83 547.975 796.799 549.861C795.795 551.681 794.59 553.384 793.463 555.126C792.3 556.912 791.038 558.637 789.955 560.469C788.509 562.916 787.165 565.427 785.842 567.944C785.53 568.54 785.366 569.203 785.364 569.876C785.382 571.483 784.616 572.981 784.944 574.683C785.215 576.089 784.944 577.594 784.841 579.05C784.799 579.618 785.484 580.456 784.403 580.723C783.801 580.87 783.148 580.848 782.517 580.9L782.507 580.787Z" fill="#693D14"/>
</g>
<path d="M358.9 125.861C358.9 126.765 359.262 127.67 359.985 128.574C360.709 129.442 361.071 130.093 361.071 130.527V130.744C361.071 131.432 360.655 131.775 359.823 131.775H352.063C351.123 131.775 350.652 131.323 350.652 130.419V129.93C348.952 131.522 346.745 132.318 344.032 132.318C340.523 132.318 337.503 131.124 334.97 128.737C332.474 126.313 331.226 122.985 331.226 118.752C331.226 114.809 332.492 111.572 335.025 109.039C337.557 106.471 340.578 105.187 344.087 105.187C346.293 105.187 348.156 105.693 349.676 106.706V99.4892C349.676 98.7657 349.44 98.1507 348.97 97.6442C348.5 97.1016 348.012 96.6494 347.505 96.2877C347.035 95.8898 346.8 95.4737 346.8 95.0396V94.8769C346.8 94.1895 347.216 93.7193 348.048 93.466L356.513 90.9157C358.104 90.4092 358.9 90.8433 358.9 92.218V125.861ZM346.203 129.659C347.179 129.695 347.993 129.297 348.645 128.465C349.332 127.633 349.676 126.512 349.676 125.101V114.628C349.676 112.892 349.169 111.336 348.156 109.962C347.179 108.551 346.058 107.846 344.792 107.846C342.115 107.846 340.686 110.07 340.505 114.52C340.433 116.22 340.578 118.192 340.939 120.435C341.337 122.677 341.988 124.776 342.893 126.729C343.833 128.646 344.937 129.623 346.203 129.659ZM379.294 132.318C375.098 132.318 371.535 131.034 368.605 128.465C365.711 125.861 364.264 122.605 364.264 118.698C364.264 114.791 365.711 111.572 368.605 109.039C371.499 106.471 374.935 105.187 378.915 105.187C383.039 105.187 386.548 106.471 389.442 109.039C392.336 111.608 393.783 114.864 393.783 118.807C393.783 122.714 392.372 125.951 389.55 128.52C386.728 131.052 383.31 132.318 379.294 132.318ZM380.434 129.659C382.749 129.659 383.907 127.434 383.907 122.985C383.907 121.357 383.672 119.422 383.201 117.179C382.767 114.936 382.008 112.82 380.922 110.83C379.873 108.84 378.698 107.846 377.395 107.846C376.129 107.846 375.225 108.406 374.682 109.528C374.14 110.649 373.868 112.349 373.868 114.628C373.868 115.822 374.013 117.233 374.302 118.861C374.592 120.489 374.99 122.135 375.496 123.799C376.003 125.427 376.69 126.819 377.558 127.977C378.462 129.098 379.421 129.659 380.434 129.659ZM426.878 125.861C426.95 126.765 427.294 127.67 427.909 128.574C428.524 129.442 428.831 130.111 428.831 130.582V130.799C428.831 131.486 428.397 131.83 427.529 131.83H416.677C415.808 131.83 415.374 131.486 415.374 130.799V130.582C415.374 130.148 415.718 129.478 416.405 128.574C417.093 127.67 417.4 126.765 417.328 125.861L416.785 116.148C416.641 113.471 416.279 111.572 415.7 110.45C415.157 109.329 414.271 108.768 413.041 108.768C411.883 108.768 410.997 109.238 410.382 110.179C409.803 111.119 409.514 112.404 409.514 114.032V125.861C409.514 126.765 409.912 127.67 410.708 128.574C411.504 129.478 411.902 130.148 411.902 130.582V130.799C411.902 131.486 411.467 131.83 410.599 131.83H398.879C398.01 131.83 397.576 131.486 397.576 130.799V130.582C397.576 130.148 397.974 129.478 398.77 128.574C399.566 127.67 399.964 126.765 399.964 125.861V115.171C399.964 114.411 399.729 113.778 399.258 113.272C398.788 112.729 398.3 112.277 397.793 111.915C397.323 111.517 397.088 111.101 397.088 110.667V110.504C397.088 110.034 397.522 109.582 398.39 109.148L405.987 105.404C406.674 105.114 407.181 105.114 407.506 105.404C407.868 105.657 408.049 106.091 408.049 106.706V109.256C409.568 106.543 412.155 105.187 415.808 105.187C418.522 105.187 420.855 106.073 422.808 107.846C424.762 109.618 425.883 112.494 426.173 116.473L426.878 125.861ZM457.711 125.861C457.819 126.729 458.018 127.434 458.308 127.977C458.633 128.483 458.941 128.809 459.23 128.954C459.556 129.098 459.845 129.279 460.098 129.496C460.351 129.713 460.478 129.985 460.478 130.31C460.478 131.504 458.434 132.101 454.346 132.101C452.682 132.101 451.434 131.902 450.602 131.504C449.806 131.106 449.3 130.437 449.083 129.496C447.708 131.377 445.411 132.318 442.192 132.318C439.153 132.318 436.675 131.613 434.758 130.202C432.876 128.791 431.936 126.747 431.936 124.07C431.936 121.466 432.876 119.44 434.758 117.993C436.639 116.51 438.954 115.768 441.703 115.768C443.837 115.768 445.664 116.22 447.184 117.125V116.962C446.822 113.38 446.406 110.957 445.936 109.691C445.502 108.424 444.633 107.791 443.331 107.791C442.499 107.791 441.83 108.171 441.323 108.931C440.817 109.691 440.437 110.523 440.184 111.427C439.967 112.331 439.533 113.163 438.882 113.923C438.23 114.683 437.362 115.063 436.277 115.063C435.155 115.063 434.233 114.737 433.51 114.086C432.822 113.435 432.479 112.585 432.479 111.535C432.479 109.437 433.528 107.864 435.626 106.815C437.724 105.729 440.292 105.187 443.331 105.187C446.949 105.187 449.933 106.182 452.284 108.171C454.672 110.125 456.083 112.783 456.517 116.148L457.711 125.861ZM445.176 129.551C446.008 129.551 446.677 129.153 447.184 128.357C447.726 127.561 447.998 126.657 447.998 125.644L447.781 123.148C447.419 120.145 446.297 118.644 444.416 118.644C443.584 118.644 442.915 118.988 442.409 119.675C441.902 120.326 441.649 121.212 441.649 122.334C441.649 124.36 441.956 126.078 442.571 127.489C443.223 128.863 444.091 129.551 445.176 129.551ZM473.824 132.318C471.074 132.318 468.904 131.45 467.312 129.713C465.757 127.977 464.979 125.499 464.979 122.279V109.419H462.917C462.555 109.419 462.248 109.311 461.994 109.094C461.777 108.84 461.669 108.533 461.669 108.171V106.977C461.669 106.145 462.085 105.729 462.917 105.729H463.948C465.612 105.729 467.041 105.241 468.235 104.264C469.428 103.251 470.206 101.913 470.568 100.249C470.749 99.3083 471.237 98.838 472.033 98.838H473.281C474.258 98.838 474.746 99.3083 474.746 100.249V105.729H480.335C480.697 105.729 480.986 105.856 481.203 106.109C481.457 106.326 481.583 106.616 481.583 106.977V108.171C481.583 108.533 481.457 108.84 481.203 109.094C480.986 109.311 480.697 109.419 480.335 109.419H474.746V122.442C474.746 123.347 474.981 124.07 475.452 124.613C475.922 125.119 476.501 125.372 477.188 125.372C478.743 125.372 479.937 124.703 480.769 123.365C481.022 123.039 481.312 122.858 481.637 122.822C481.963 122.75 482.234 122.804 482.451 122.985C482.705 123.166 482.831 123.419 482.831 123.745C482.831 126.024 482.017 128.031 480.389 129.768C478.798 131.468 476.609 132.318 473.824 132.318ZM507.543 123.202C507.941 122.804 508.375 122.695 508.845 122.876C509.352 123.021 509.587 123.383 509.551 123.962C509.478 125.77 508.429 127.615 506.404 129.496C504.378 131.377 501.755 132.318 498.536 132.318C494.592 132.318 491.373 131.052 488.877 128.52C486.381 125.987 485.133 122.677 485.133 118.59C485.133 114.683 486.435 111.481 489.04 108.985C491.68 106.453 494.828 105.187 498.481 105.187C501.773 105.187 504.324 105.946 506.132 107.466C507.941 108.985 508.845 110.703 508.845 112.621C508.845 114.14 508.14 115.261 506.729 115.985L495.931 122.062C497.414 124.414 499.476 125.589 502.117 125.589C503.238 125.589 504.287 125.372 505.264 124.938C506.277 124.468 507.037 123.889 507.543 123.202ZM497.505 107.846C496.419 107.846 495.533 108.388 494.846 109.473C494.195 110.559 493.869 111.915 493.869 113.543C493.869 115.714 494.14 117.613 494.683 119.241L499.729 116.202C500.67 115.551 501.14 114.628 501.14 113.435C501.14 112.241 500.833 111.011 500.218 109.745C499.639 108.479 498.735 107.846 497.505 107.846ZM523.022 131.016C521.973 131.884 520.616 132.318 518.952 132.318C517.288 132.318 515.914 131.884 514.828 131.016C513.743 130.148 513.2 128.863 513.2 127.163C513.2 125.499 513.743 124.233 514.828 123.365C515.914 122.496 517.288 122.062 518.952 122.062C520.616 122.062 521.973 122.496 523.022 123.365C524.107 124.233 524.65 125.499 524.65 127.163C524.65 128.827 524.107 130.111 523.022 131.016ZM348.848 179.187C352.212 179.187 355.178 180.344 357.747 182.66C360.351 184.939 361.654 188.158 361.654 192.318C361.654 196.478 360.387 199.861 357.855 202.465C355.359 205.034 352.357 206.318 348.848 206.318C346.641 206.318 344.796 205.793 343.313 204.744V211.31C343.313 212.215 343.711 213.101 344.507 213.969C345.339 214.873 345.755 215.543 345.755 215.977V216.194C345.755 216.881 345.321 217.225 344.452 217.225H332.949C332.081 217.225 331.646 216.881 331.646 216.194V215.977C331.646 215.543 332.008 214.873 332.732 213.969C333.455 213.101 333.817 212.215 333.817 211.31V189.063C333.817 188.23 333.383 187.453 332.515 186.729C331.646 185.97 331.212 185.355 331.212 184.884V184.613C331.212 184.034 331.628 183.51 332.46 183.039L339.623 179.512C340.419 179.187 340.998 179.132 341.359 179.35C341.721 179.567 341.902 179.983 341.902 180.598V182.171C343.313 180.182 345.628 179.187 348.848 179.187ZM347.979 203.659C350.729 203.659 352.103 201.38 352.103 196.822C352.103 194.652 351.923 192.481 351.561 190.311C351.235 188.14 350.62 186.187 349.716 184.45C348.848 182.714 347.799 181.846 346.569 181.846C345.592 181.846 344.796 182.244 344.181 183.039C343.602 183.835 343.313 184.866 343.313 186.132V195.954C343.313 198.197 343.783 200.042 344.724 201.489C345.664 202.936 346.749 203.659 347.979 203.659ZM383.507 179.187C385.062 179.187 386.292 179.693 387.196 180.706C388.137 181.719 388.607 183.003 388.607 184.559C388.607 187.959 387.215 189.659 384.429 189.659C383.308 189.659 382.458 189.406 381.879 188.9C381.3 188.357 380.956 187.76 380.848 187.109C380.775 186.458 380.594 185.879 380.305 185.373C380.016 184.83 379.582 184.559 379.003 184.559C377.664 184.559 376.995 186.295 376.995 189.768V199.861C376.995 200.765 377.465 201.67 378.406 202.574C379.383 203.442 379.871 204.093 379.871 204.527V204.744C379.871 205.432 379.437 205.775 378.569 205.775H366.902C366.034 205.775 365.6 205.432 365.6 204.744V204.527C365.6 204.093 365.962 203.442 366.685 202.574C367.409 201.67 367.77 200.765 367.77 199.861V189.063C367.77 188.339 367.553 187.724 367.119 187.218C366.685 186.711 366.251 186.277 365.817 185.915C365.383 185.554 365.166 185.156 365.166 184.722V184.559C365.166 183.944 365.582 183.419 366.414 182.985L374.065 179.404C374.788 179.151 375.295 179.132 375.584 179.35C375.874 179.567 376.018 179.983 376.018 180.598V184.559C377.248 180.977 379.744 179.187 383.507 179.187ZM405.55 206.318C401.354 206.318 397.791 205.034 394.861 202.465C391.967 199.861 390.52 196.605 390.52 192.698C390.52 188.791 391.967 185.572 394.861 183.039C397.755 180.471 401.191 179.187 405.17 179.187C409.294 179.187 412.803 180.471 415.697 183.039C418.591 185.608 420.038 188.864 420.038 192.807C420.038 196.714 418.628 199.951 415.806 202.52C412.984 205.052 409.566 206.318 405.55 206.318ZM406.69 203.659C409.005 203.659 410.163 201.434 410.163 196.985C410.163 195.357 409.927 193.422 409.457 191.179C409.023 188.936 408.263 186.82 407.178 184.83C406.129 182.84 404.953 181.846 403.651 181.846C402.385 181.846 401.481 182.406 400.938 183.528C400.395 184.649 400.124 186.349 400.124 188.628C400.124 189.822 400.269 191.233 400.558 192.861C400.848 194.489 401.245 196.135 401.752 197.799C402.258 199.427 402.946 200.819 403.814 201.977C404.718 203.098 405.677 203.659 406.69 203.659ZM434.691 206.318C431.942 206.318 429.771 205.45 428.179 203.713C426.624 201.977 425.846 199.499 425.846 196.279V183.419H423.784C423.422 183.419 423.115 183.311 422.862 183.094C422.645 182.84 422.536 182.533 422.536 182.171V180.977C422.536 180.145 422.952 179.729 423.784 179.729H424.815C426.479 179.729 427.908 179.241 429.102 178.264C430.296 177.251 431.073 175.913 431.435 174.249C431.616 173.308 432.104 172.838 432.9 172.838H434.148C435.125 172.838 435.613 173.308 435.613 174.249V179.729H441.203C441.564 179.729 441.854 179.856 442.071 180.109C442.324 180.326 442.451 180.616 442.451 180.977V182.171C442.451 182.533 442.324 182.84 442.071 183.094C441.854 183.311 441.564 183.419 441.203 183.419H435.613V196.442C435.613 197.347 435.849 198.07 436.319 198.613C436.789 199.119 437.368 199.372 438.055 199.372C439.611 199.372 440.805 198.703 441.637 197.365C441.89 197.039 442.179 196.858 442.505 196.822C442.83 196.75 443.102 196.804 443.319 196.985C443.572 197.166 443.699 197.419 443.699 197.745C443.699 200.024 442.885 202.031 441.257 203.768C439.665 205.468 437.476 206.318 434.691 206.318ZM468.411 197.202C468.808 196.804 469.243 196.695 469.713 196.876C470.219 197.021 470.454 197.383 470.418 197.962C470.346 199.77 469.297 201.615 467.271 203.496C465.245 205.377 462.623 206.318 459.403 206.318C455.46 206.318 452.24 205.052 449.744 202.52C447.248 199.987 446 196.677 446 192.59C446 188.683 447.302 185.481 449.907 182.985C452.548 180.453 455.695 179.187 459.349 179.187C462.641 179.187 465.191 179.946 467 181.466C468.808 182.985 469.713 184.703 469.713 186.621C469.713 188.14 469.007 189.261 467.597 189.985L456.798 196.062C458.282 198.414 460.343 199.589 462.984 199.589C464.106 199.589 465.155 199.372 466.131 198.938C467.144 198.468 467.904 197.889 468.411 197.202ZM458.372 181.846C457.287 181.846 456.4 182.388 455.713 183.473C455.062 184.559 454.736 185.915 454.736 187.543C454.736 189.714 455.008 191.613 455.55 193.241L460.597 190.202C461.537 189.551 462.008 188.628 462.008 187.435C462.008 186.241 461.7 185.011 461.085 183.745C460.506 182.479 459.602 181.846 458.372 181.846ZM485.626 206.264C482.153 206.264 479.295 205.685 477.052 204.527C474.809 203.334 473.688 201.796 473.688 199.915C473.688 198.757 474.032 197.889 474.719 197.31C475.442 196.732 476.383 196.442 477.541 196.442C478.771 196.442 479.747 196.84 480.471 197.636C481.194 198.396 481.683 199.246 481.936 200.186C482.189 201.091 482.623 201.941 483.238 202.737C483.853 203.496 484.649 203.876 485.626 203.876C487.579 203.876 488.556 202.881 488.556 200.892C488.556 199.589 488.049 198.558 487.037 197.799C486.06 197.039 484.866 196.46 483.455 196.062C482.044 195.664 480.634 195.212 479.223 194.706C477.848 194.199 476.654 193.349 475.641 192.155C474.665 190.962 474.176 189.388 474.176 187.435C474.176 185.011 475.243 183.039 477.378 181.52C479.512 179.965 482.261 179.187 485.626 179.187C488.99 179.187 491.721 179.82 493.819 181.086C495.954 182.352 497.021 183.889 497.021 185.698C497.021 186.639 496.659 187.435 495.936 188.086C495.248 188.701 494.398 189.008 493.385 189.008C492.191 189.008 491.251 188.628 490.564 187.869C489.876 187.109 489.406 186.277 489.153 185.373C488.936 184.432 488.574 183.582 488.068 182.822C487.597 182.063 486.946 181.683 486.114 181.683C485.318 181.683 484.685 181.99 484.215 182.605C483.781 183.22 483.564 183.944 483.564 184.776C483.564 186.114 484.034 187.2 484.975 188.032C485.951 188.864 487.109 189.497 488.447 189.931C489.822 190.365 491.179 190.835 492.517 191.342C493.892 191.848 495.049 192.68 495.99 193.838C496.967 194.959 497.455 196.442 497.455 198.287C497.455 200.602 496.388 202.52 494.253 204.039C492.155 205.522 489.279 206.264 485.626 206.264ZM512.399 206.318C509.649 206.318 507.479 205.45 505.887 203.713C504.332 201.977 503.554 199.499 503.554 196.279V183.419H501.492C501.13 183.419 500.823 183.311 500.57 183.094C500.353 182.84 500.244 182.533 500.244 182.171V180.977C500.244 180.145 500.66 179.729 501.492 179.729H502.523C504.187 179.729 505.616 179.241 506.81 178.264C508.004 177.251 508.781 175.913 509.143 174.249C509.324 173.308 509.812 172.838 510.608 172.838H511.856C512.833 172.838 513.321 173.308 513.321 174.249V179.729H518.91C519.272 179.729 519.561 179.856 519.778 180.109C520.032 180.326 520.158 180.616 520.158 180.977V182.171C520.158 182.533 520.032 182.84 519.778 183.094C519.561 183.311 519.272 183.419 518.91 183.419H513.321V196.442C513.321 197.347 513.556 198.07 514.027 198.613C514.497 199.119 515.076 199.372 515.763 199.372C517.319 199.372 518.512 198.703 519.344 197.365C519.598 197.039 519.887 196.858 520.213 196.822C520.538 196.75 520.809 196.804 521.027 196.985C521.28 197.166 521.406 197.419 521.406 197.745C521.406 200.024 520.592 202.031 518.965 203.768C517.373 205.468 515.184 206.318 512.399 206.318ZM534.175 205.016C533.126 205.884 531.77 206.318 530.106 206.318C528.442 206.318 527.067 205.884 525.982 205.016C524.897 204.148 524.354 202.863 524.354 201.163C524.354 199.499 524.897 198.233 525.982 197.365C527.067 196.496 528.442 196.062 530.106 196.062C531.77 196.062 533.126 196.496 534.175 197.365C535.261 198.233 535.803 199.499 535.803 201.163C535.803 202.827 535.261 204.111 534.175 205.016ZM363.274 280.264C359.801 280.264 356.944 279.685 354.701 278.527C352.458 277.334 351.337 275.796 351.337 273.915C351.337 272.757 351.68 271.889 352.368 271.31C353.091 270.732 354.032 270.442 355.189 270.442C356.419 270.442 357.396 270.84 358.119 271.636C358.843 272.396 359.331 273.246 359.584 274.186C359.838 275.091 360.272 275.941 360.887 276.737C361.502 277.496 362.298 277.876 363.274 277.876C365.228 277.876 366.204 276.881 366.204 274.892C366.204 273.589 365.698 272.558 364.685 271.799C363.708 271.039 362.515 270.46 361.104 270.062C359.693 269.664 358.282 269.212 356.871 268.706C355.497 268.199 354.303 267.349 353.29 266.155C352.313 264.962 351.825 263.388 351.825 261.435C351.825 259.011 352.892 257.039 355.026 255.52C357.161 253.965 359.91 253.187 363.274 253.187C366.639 253.187 369.37 253.82 371.468 255.086C373.602 256.352 374.669 257.889 374.669 259.698C374.669 260.639 374.308 261.435 373.584 262.086C372.897 262.701 372.047 263.008 371.034 263.008C369.84 263.008 368.899 262.628 368.212 261.869C367.525 261.109 367.055 260.277 366.801 259.373C366.584 258.432 366.223 257.582 365.716 256.822C365.246 256.063 364.595 255.683 363.763 255.683C362.967 255.683 362.334 255.99 361.863 256.605C361.429 257.22 361.212 257.944 361.212 258.776C361.212 260.114 361.683 261.2 362.623 262.032C363.6 262.864 364.757 263.497 366.096 263.931C367.471 264.365 368.827 264.835 370.166 265.342C371.54 265.848 372.698 266.68 373.638 267.838C374.615 268.959 375.104 270.442 375.104 272.287C375.104 274.602 374.036 276.52 371.902 278.039C369.804 279.522 366.928 280.264 363.274 280.264ZM395.689 253.187C399.054 253.187 402.02 254.344 404.588 256.66C407.193 258.939 408.495 262.158 408.495 266.318C408.495 270.478 407.229 273.861 404.697 276.465C402.201 279.034 399.198 280.318 395.689 280.318C393.483 280.318 391.638 279.793 390.155 278.744V285.31C390.155 286.215 390.553 287.101 391.348 287.969C392.18 288.873 392.596 289.543 392.596 289.977V290.194C392.596 290.881 392.162 291.225 391.294 291.225H379.79C378.922 291.225 378.488 290.881 378.488 290.194V289.977C378.488 289.543 378.85 288.873 379.573 287.969C380.297 287.101 380.659 286.215 380.659 285.31V263.063C380.659 262.23 380.225 261.453 379.356 260.729C378.488 259.97 378.054 259.355 378.054 258.884V258.613C378.054 258.034 378.47 257.51 379.302 257.039L386.465 253.512C387.261 253.187 387.839 253.132 388.201 253.35C388.563 253.567 388.744 253.983 388.744 254.598V256.171C390.155 254.182 392.47 253.187 395.689 253.187ZM394.821 277.659C397.57 277.659 398.945 275.38 398.945 270.822C398.945 268.652 398.764 266.481 398.402 264.311C398.077 262.14 397.462 260.187 396.558 258.45C395.689 256.714 394.64 255.846 393.41 255.846C392.434 255.846 391.638 256.244 391.023 257.039C390.444 257.835 390.155 258.866 390.155 260.132V269.954C390.155 272.197 390.625 274.042 391.565 275.489C392.506 276.936 393.591 277.659 394.821 277.659ZM434.418 271.202C434.816 270.804 435.25 270.695 435.72 270.876C436.227 271.021 436.462 271.383 436.426 271.962C436.353 273.77 435.304 275.615 433.278 277.496C431.253 279.377 428.63 280.318 425.41 280.318C421.467 280.318 418.248 279.052 415.752 276.52C413.256 273.987 412.008 270.677 412.008 266.59C412.008 262.683 413.31 259.481 415.914 256.985C418.555 254.453 421.702 253.187 425.356 253.187C428.648 253.187 431.198 253.946 433.007 255.466C434.816 256.985 435.72 258.703 435.72 260.621C435.72 262.14 435.015 263.261 433.604 263.985L422.806 270.062C424.289 272.414 426.351 273.589 428.992 273.589C430.113 273.589 431.162 273.372 432.139 272.938C433.152 272.468 433.912 271.889 434.418 271.202ZM424.379 255.846C423.294 255.846 422.408 256.388 421.721 257.473C421.069 258.559 420.744 259.915 420.744 261.543C420.744 263.714 421.015 265.613 421.558 267.241L426.604 264.202C427.545 263.551 428.015 262.628 428.015 261.435C428.015 260.241 427.708 259.011 427.093 257.745C426.514 256.479 425.609 255.846 424.379 255.846ZM465.579 273.861C465.687 274.729 465.886 275.434 466.176 275.977C466.501 276.483 466.809 276.809 467.098 276.954C467.424 277.098 467.713 277.279 467.966 277.496C468.219 277.713 468.346 277.985 468.346 278.31C468.346 279.504 466.302 280.101 462.214 280.101C460.55 280.101 459.302 279.902 458.47 279.504C457.674 279.106 457.168 278.437 456.951 277.496C455.576 279.377 453.279 280.318 450.06 280.318C447.021 280.318 444.543 279.613 442.626 278.202C440.745 276.791 439.804 274.747 439.804 272.07C439.804 269.466 440.745 267.44 442.626 265.993C444.507 264.51 446.822 263.768 449.571 263.768C451.706 263.768 453.532 264.22 455.052 265.125V264.962C454.69 261.38 454.274 258.957 453.804 257.691C453.37 256.424 452.501 255.791 451.199 255.791C450.367 255.791 449.698 256.171 449.191 256.931C448.685 257.691 448.305 258.523 448.052 259.427C447.835 260.331 447.401 261.163 446.75 261.923C446.098 262.683 445.23 263.063 444.145 263.063C443.024 263.063 442.101 262.737 441.378 262.086C440.69 261.435 440.347 260.585 440.347 259.535C440.347 257.437 441.396 255.864 443.494 254.815C445.592 253.729 448.16 253.187 451.199 253.187C454.817 253.187 457.801 254.182 460.152 256.171C462.54 258.125 463.951 260.783 464.385 264.148L465.579 273.861ZM453.044 277.551C453.876 277.551 454.545 277.153 455.052 276.357C455.594 275.561 455.866 274.657 455.866 273.644L455.649 271.148C455.287 268.145 454.165 266.644 452.284 266.644C451.452 266.644 450.783 266.988 450.277 267.675C449.77 268.326 449.517 269.212 449.517 270.334C449.517 272.36 449.824 274.078 450.439 275.489C451.091 276.863 451.959 277.551 453.044 277.551ZM499.589 275.217C499.77 275.471 500.313 275.941 501.217 276.628C502.158 277.315 502.628 277.949 502.628 278.527V278.744C502.628 279.432 502.212 279.775 501.38 279.775H489.985C489.153 279.775 488.737 279.414 488.737 278.69V278.527C488.737 278.093 489.008 277.569 489.551 276.954C490.093 276.303 490.202 275.724 489.876 275.217L485.101 268.109L482.388 270.605V273.861C482.388 274.765 482.786 275.67 483.582 276.574C484.414 277.442 484.83 278.093 484.83 278.527V278.744C484.83 279.432 484.396 279.775 483.528 279.775H471.807C470.939 279.775 470.505 279.432 470.505 278.744V278.527C470.505 278.093 470.866 277.442 471.59 276.574C472.313 275.67 472.675 274.765 472.675 273.861V249.063C472.675 248.122 472.241 247.218 471.373 246.35C470.505 245.445 470.071 244.812 470.071 244.45V244.233C470.071 243.835 470.469 243.419 471.264 242.985L479.946 238.97C480.706 238.681 481.303 238.662 481.737 238.916C482.171 239.169 482.388 239.567 482.388 240.109V265.884L489.714 259.59C490.148 259.3 490.311 258.939 490.202 258.504C490.13 258.07 489.949 257.691 489.659 257.365C489.406 257.003 489.117 256.605 488.791 256.171C488.502 255.737 488.357 255.357 488.357 255.032V254.815C488.357 254.091 488.773 253.729 489.605 253.729H498.179C499.011 253.729 499.427 254.073 499.427 254.76V254.977C499.427 255.412 499.173 255.864 498.667 256.334C498.161 256.768 497.437 257.293 496.496 257.908C495.592 258.486 494.869 259.029 494.326 259.535L490.853 262.737L499.589 275.217ZM514.702 279.016C513.653 279.884 512.297 280.318 510.633 280.318C508.969 280.318 507.594 279.884 506.509 279.016C505.423 278.148 504.881 276.863 504.881 275.163C504.881 273.499 505.423 272.233 506.509 271.365C507.594 270.496 508.969 270.062 510.633 270.062C512.297 270.062 513.653 270.496 514.702 271.365C515.788 272.233 516.33 273.499 516.33 275.163C516.33 276.827 515.788 278.111 514.702 279.016ZM360.875 353.775C360.043 353.775 359.627 353.432 359.627 352.744V352.527C359.627 352.093 359.971 351.442 360.658 350.574C361.382 349.67 361.743 348.765 361.743 347.861V323.063C361.743 322.122 361.382 321.218 360.658 320.35C359.971 319.445 359.627 318.812 359.627 318.45V318.233C359.627 317.835 360.025 317.419 360.821 316.985L369.014 312.97C369.774 312.644 370.371 312.626 370.805 312.916C371.275 313.169 371.511 313.567 371.511 314.109V347.861C371.511 348.765 371.908 349.67 372.704 350.574C373.5 351.442 373.898 352.093 373.898 352.527V352.744C373.898 353.432 373.464 353.775 372.596 353.775H360.875ZM399.604 345.202C400.002 344.804 400.436 344.695 400.906 344.876C401.413 345.021 401.648 345.383 401.612 345.962C401.539 347.77 400.49 349.615 398.465 351.496C396.439 353.377 393.816 354.318 390.597 354.318C386.653 354.318 383.434 353.052 380.938 350.52C378.442 347.987 377.194 344.677 377.194 340.59C377.194 336.683 378.496 333.481 381.101 330.985C383.741 328.453 386.889 327.187 390.542 327.187C393.834 327.187 396.385 327.946 398.193 329.466C400.002 330.985 400.906 332.703 400.906 334.621C400.906 336.14 400.201 337.261 398.79 337.985L387.992 344.062C389.475 346.414 391.537 347.589 394.178 347.589C395.299 347.589 396.348 347.372 397.325 346.938C398.338 346.468 399.098 345.889 399.604 345.202ZM389.566 329.846C388.48 329.846 387.594 330.388 386.907 331.473C386.256 332.559 385.93 333.915 385.93 335.543C385.93 337.714 386.201 339.613 386.744 341.241L391.79 338.202C392.731 337.551 393.201 336.628 393.201 335.435C393.201 334.241 392.894 333.011 392.279 331.745C391.7 330.479 390.795 329.846 389.566 329.846ZM430.765 347.861C430.873 348.729 431.072 349.434 431.362 349.977C431.687 350.483 431.995 350.809 432.284 350.954C432.61 351.098 432.899 351.279 433.152 351.496C433.406 351.713 433.532 351.985 433.532 352.31C433.532 353.504 431.488 354.101 427.401 354.101C425.736 354.101 424.488 353.902 423.656 353.504C422.861 353.106 422.354 352.437 422.137 351.496C420.762 353.377 418.465 354.318 415.246 354.318C412.207 354.318 409.729 353.613 407.812 352.202C405.931 350.791 404.99 348.747 404.99 346.07C404.99 343.466 405.931 341.44 407.812 339.993C409.693 338.51 412.008 337.768 414.757 337.768C416.892 337.768 418.719 338.22 420.238 339.125V338.962C419.876 335.38 419.46 332.957 418.99 331.691C418.556 330.424 417.688 329.791 416.385 329.791C415.553 329.791 414.884 330.171 414.378 330.931C413.871 331.691 413.491 332.523 413.238 333.427C413.021 334.331 412.587 335.163 411.936 335.923C411.285 336.683 410.416 337.063 409.331 337.063C408.21 337.063 407.287 336.737 406.564 336.086C405.876 335.435 405.533 334.585 405.533 333.535C405.533 331.437 406.582 329.864 408.68 328.815C410.778 327.729 413.347 327.187 416.385 327.187C420.003 327.187 422.987 328.182 425.339 330.171C427.726 332.125 429.137 334.783 429.571 338.148L430.765 347.861ZM418.23 351.551C419.062 351.551 419.731 351.153 420.238 350.357C420.78 349.561 421.052 348.657 421.052 347.644L420.835 345.148C420.473 342.145 419.352 340.644 417.47 340.644C416.638 340.644 415.969 340.988 415.463 341.675C414.956 342.326 414.703 343.212 414.703 344.334C414.703 346.36 415.011 348.078 415.626 349.489C416.277 350.863 417.145 351.551 418.23 351.551ZM454.14 327.187C455.696 327.187 456.926 327.693 457.83 328.706C458.77 329.719 459.241 331.003 459.241 332.559C459.241 335.959 457.848 337.659 455.063 337.659C453.941 337.659 453.091 337.406 452.512 336.9C451.933 336.357 451.59 335.76 451.481 335.109C451.409 334.458 451.228 333.879 450.939 333.373C450.649 332.83 450.215 332.559 449.636 332.559C448.298 332.559 447.629 334.295 447.629 337.768V347.861C447.629 348.765 448.099 349.67 449.039 350.574C450.016 351.442 450.505 352.093 450.505 352.527V352.744C450.505 353.432 450.07 353.775 449.202 353.775H437.536C436.668 353.775 436.233 353.432 436.233 352.744V352.527C436.233 352.093 436.595 351.442 437.319 350.574C438.042 349.67 438.404 348.765 438.404 347.861V337.063C438.404 336.339 438.187 335.724 437.753 335.218C437.319 334.711 436.885 334.277 436.451 333.915C436.016 333.554 435.799 333.156 435.799 332.722V332.559C435.799 331.944 436.215 331.419 437.047 330.985L444.698 327.404C445.422 327.151 445.928 327.132 446.218 327.35C446.507 327.567 446.652 327.983 446.652 328.598V332.559C447.882 328.977 450.378 327.187 454.14 327.187ZM491.153 347.861C491.225 348.765 491.569 349.67 492.184 350.574C492.799 351.442 493.106 352.111 493.106 352.582V352.799C493.106 353.486 492.672 353.83 491.804 353.83H480.951C480.083 353.83 479.649 353.486 479.649 352.799V352.582C479.649 352.148 479.993 351.478 480.68 350.574C481.367 349.67 481.675 348.765 481.602 347.861L481.06 338.148C480.915 335.471 480.553 333.572 479.975 332.45C479.432 331.329 478.546 330.768 477.316 330.768C476.158 330.768 475.272 331.238 474.657 332.179C474.078 333.119 473.789 334.404 473.789 336.032V347.861C473.789 348.765 474.187 349.67 474.982 350.574C475.778 351.478 476.176 352.148 476.176 352.582V352.799C476.176 353.486 475.742 353.83 474.874 353.83H463.153C462.285 353.83 461.851 353.486 461.851 352.799V352.582C461.851 352.148 462.249 351.478 463.045 350.574C463.841 349.67 464.238 348.765 464.238 347.861V337.171C464.238 336.411 464.003 335.778 463.533 335.272C463.063 334.729 462.574 334.277 462.068 333.915C461.598 333.517 461.363 333.101 461.363 332.667V332.504C461.363 332.034 461.797 331.582 462.665 331.148L470.262 327.404C470.949 327.114 471.455 327.114 471.781 327.404C472.143 327.657 472.324 328.091 472.324 328.706V331.256C473.843 328.543 476.429 327.187 480.083 327.187C482.796 327.187 485.13 328.073 487.083 329.846C489.036 331.618 490.158 334.494 490.447 338.473L491.153 347.861ZM506.303 353.016C505.254 353.884 503.898 354.318 502.234 354.318C500.57 354.318 499.195 353.884 498.11 353.016C497.024 352.148 496.482 350.863 496.482 349.163C496.482 347.499 497.024 346.233 498.11 345.365C499.195 344.496 500.57 344.062 502.234 344.062C503.898 344.062 505.254 344.496 506.303 345.365C507.389 346.233 507.931 347.499 507.931 349.163C507.931 350.827 507.389 352.111 506.303 353.016ZM355.245 427.775C354.413 427.775 353.997 427.432 353.997 426.744V426.527C353.997 426.093 354.341 425.442 355.028 424.574C355.752 423.67 356.114 422.765 356.114 421.861V397.063C356.114 396.122 355.752 395.218 355.028 394.35C354.341 393.445 353.997 392.812 353.997 392.45V392.233C353.997 391.835 354.395 391.419 355.191 390.985L363.385 386.97C364.144 386.644 364.741 386.626 365.175 386.916C365.646 387.169 365.881 387.567 365.881 388.109V421.861C365.881 422.765 366.279 423.67 367.075 424.574C367.87 425.442 368.268 426.093 368.268 426.527V426.744C368.268 427.432 367.834 427.775 366.966 427.775H355.245ZM378.998 398.528C377.153 398.528 375.652 398.021 374.494 397.009C373.337 395.959 372.758 394.657 372.758 393.102C372.758 391.546 373.337 390.262 374.494 389.249C375.652 388.2 377.153 387.675 378.998 387.675C380.807 387.675 382.29 388.2 383.447 389.249C384.605 390.262 385.184 391.546 385.184 393.102C385.184 394.657 384.605 395.959 383.447 397.009C382.29 398.021 380.807 398.528 378.998 398.528ZM373.192 427.775C372.324 427.775 371.89 427.432 371.89 426.744V426.527C371.89 426.093 372.251 425.424 372.975 424.52C373.698 423.615 374.06 422.711 374.06 421.807V411.497C374.06 410.556 373.698 409.652 372.975 408.783C372.251 407.879 371.89 407.264 371.89 406.939V406.722C371.89 406.287 372.306 405.871 373.138 405.473L381.331 401.458C382.091 401.132 382.688 401.096 383.122 401.35C383.556 401.603 383.773 402.019 383.773 402.598V421.807C383.773 422.711 384.171 423.615 384.967 424.52C385.799 425.424 386.215 426.093 386.215 426.527V426.744C386.215 427.432 385.763 427.775 384.858 427.775H373.192ZM401.439 428.264C397.966 428.264 395.109 427.685 392.866 426.527C390.623 425.334 389.502 423.796 389.502 421.915C389.502 420.757 389.845 419.889 390.533 419.31C391.256 418.732 392.197 418.442 393.354 418.442C394.584 418.442 395.561 418.84 396.284 419.636C397.008 420.396 397.496 421.246 397.749 422.186C398.003 423.091 398.437 423.941 399.052 424.737C399.667 425.496 400.463 425.876 401.439 425.876C403.393 425.876 404.369 424.881 404.369 422.892C404.369 421.589 403.863 420.558 402.85 419.799C401.873 419.039 400.68 418.46 399.269 418.062C397.858 417.664 396.447 417.212 395.036 416.706C393.662 416.199 392.468 415.349 391.455 414.155C390.478 412.962 389.99 411.388 389.99 409.435C389.99 407.011 391.057 405.039 393.191 403.52C395.326 401.965 398.075 401.187 401.439 401.187C404.804 401.187 407.535 401.82 409.633 403.086C411.767 404.352 412.834 405.889 412.834 407.698C412.834 408.639 412.473 409.435 411.749 410.086C411.062 410.701 410.212 411.008 409.199 411.008C408.005 411.008 407.065 410.628 406.377 409.869C405.69 409.109 405.22 408.277 404.966 407.373C404.749 406.432 404.388 405.582 403.881 404.822C403.411 404.063 402.76 403.683 401.928 403.683C401.132 403.683 400.499 403.99 400.028 404.605C399.594 405.22 399.377 405.944 399.377 406.776C399.377 408.114 399.848 409.2 400.788 410.032C401.765 410.864 402.922 411.497 404.261 411.931C405.636 412.365 406.992 412.835 408.331 413.342C409.705 413.848 410.863 414.68 411.803 415.838C412.78 416.959 413.269 418.442 413.269 420.287C413.269 422.602 412.201 424.52 410.067 426.039C407.969 427.522 405.093 428.264 401.439 428.264ZM428.212 428.318C425.463 428.318 423.293 427.45 421.701 425.713C420.145 423.977 419.368 421.499 419.368 418.279V405.419H417.306C416.944 405.419 416.636 405.311 416.383 405.094C416.166 404.84 416.058 404.533 416.058 404.171V402.977C416.058 402.145 416.474 401.729 417.306 401.729H418.337C420.001 401.729 421.43 401.241 422.623 400.264C423.817 399.251 424.595 397.913 424.957 396.249C425.137 395.308 425.626 394.838 426.422 394.838H427.67C428.646 394.838 429.135 395.308 429.135 396.249V401.729H434.724C435.086 401.729 435.375 401.856 435.592 402.109C435.845 402.326 435.972 402.616 435.972 402.977V404.171C435.972 404.533 435.845 404.84 435.592 405.094C435.375 405.311 435.086 405.419 434.724 405.419H429.135V418.442C429.135 419.347 429.37 420.07 429.84 420.613C430.31 421.119 430.889 421.372 431.577 421.372C433.132 421.372 434.326 420.703 435.158 419.365C435.411 419.039 435.701 418.858 436.026 418.822C436.352 418.75 436.623 418.804 436.84 418.985C437.093 419.166 437.22 419.419 437.22 419.745C437.22 422.024 436.406 424.031 434.778 425.768C433.186 427.468 430.998 428.318 428.212 428.318ZM461.932 419.202C462.33 418.804 462.764 418.695 463.234 418.876C463.741 419.021 463.976 419.383 463.94 419.962C463.867 421.77 462.818 423.615 460.792 425.496C458.767 427.377 456.144 428.318 452.924 428.318C448.981 428.318 445.762 427.052 443.266 424.52C440.769 421.987 439.521 418.677 439.521 414.59C439.521 410.683 440.824 407.481 443.428 404.985C446.069 402.453 449.216 401.187 452.87 401.187C456.162 401.187 458.712 401.946 460.521 403.466C462.33 404.985 463.234 406.703 463.234 408.621C463.234 410.14 462.529 411.261 461.118 411.985L450.32 418.062C451.803 420.414 453.865 421.589 456.506 421.589C457.627 421.589 458.676 421.372 459.653 420.938C460.666 420.468 461.425 419.889 461.932 419.202ZM451.893 403.846C450.808 403.846 449.922 404.388 449.234 405.473C448.583 406.559 448.258 407.915 448.258 409.543C448.258 411.714 448.529 413.613 449.072 415.241L454.118 412.202C455.059 411.551 455.529 410.628 455.529 409.435C455.529 408.241 455.221 407.011 454.606 405.745C454.028 404.479 453.123 403.846 451.893 403.846ZM496.782 421.861C496.855 422.765 497.198 423.67 497.813 424.574C498.428 425.442 498.736 426.111 498.736 426.582V426.799C498.736 427.486 498.302 427.83 497.434 427.83H486.581C485.713 427.83 485.279 427.486 485.279 426.799V426.582C485.279 426.148 485.622 425.478 486.31 424.574C486.997 423.67 487.305 422.765 487.232 421.861L486.69 412.148C486.545 409.471 486.183 407.572 485.604 406.45C485.062 405.329 484.175 404.768 482.945 404.768C481.788 404.768 480.902 405.238 480.287 406.179C479.708 407.119 479.418 408.404 479.418 410.032V421.861C479.418 422.765 479.816 423.67 480.612 424.574C481.408 425.478 481.806 426.148 481.806 426.582V426.799C481.806 427.486 481.372 427.83 480.504 427.83H468.783C467.915 427.83 467.481 427.486 467.481 426.799V426.582C467.481 426.148 467.879 425.478 468.674 424.574C469.47 423.67 469.868 422.765 469.868 421.861V411.171C469.868 410.411 469.633 409.778 469.163 409.272C468.692 408.729 468.204 408.277 467.698 407.915C467.227 407.517 466.992 407.101 466.992 406.667V406.504C466.992 406.034 467.426 405.582 468.295 405.148L475.891 401.404C476.579 401.114 477.085 401.114 477.411 401.404C477.772 401.657 477.953 402.091 477.953 402.706V405.256C479.473 402.543 482.059 401.187 485.713 401.187C488.426 401.187 490.759 402.073 492.713 403.846C494.666 405.618 495.788 408.494 496.077 412.473L496.782 421.861ZM511.933 427.016C510.884 427.884 509.527 428.318 507.863 428.318C506.199 428.318 504.825 427.884 503.739 427.016C502.654 426.148 502.112 424.863 502.112 423.163C502.112 421.499 502.654 420.233 503.739 419.365C504.825 418.496 506.199 418.062 507.863 418.062C509.527 418.062 510.884 418.496 511.933 419.365C513.018 420.233 513.561 421.499 513.561 423.163C513.561 424.827 513.018 426.111 511.933 427.016Z" fill="#693D14"/>
<path d="M239.946 472.017C239.392 472.686 239.104 473.577 239.085 474.69C239.088 475.777 238.956 476.481 238.69 476.802L238.556 476.962C238.135 477.471 237.616 477.47 237 476.96L231.258 472.199C230.563 471.622 230.492 470.999 231.047 470.33L231.346 469.968C229.112 470.103 226.991 469.338 224.983 467.673C222.386 465.521 220.884 462.784 220.475 459.464C220.115 456.139 221.233 452.91 223.83 449.778C226.249 446.861 229.172 445.242 232.6 444.922C236.049 444.575 239.072 445.477 241.669 447.63C243.302 448.984 244.37 450.502 244.872 452.184L249.3 446.843C249.744 446.308 249.947 445.709 249.91 445.045C249.895 444.355 249.811 443.721 249.658 443.143C249.554 442.56 249.636 442.108 249.902 441.786L250.002 441.666C250.424 441.157 251.02 441.065 251.791 441.388L259.619 444.694C261.108 445.296 261.431 446.105 260.587 447.122L239.946 472.017ZM228.22 467.038C228.921 467.664 229.767 467.868 230.76 467.652C231.779 467.458 232.721 466.839 233.587 465.795L240.012 458.046C241.077 456.761 241.657 455.299 241.751 453.661C241.893 452.017 241.496 450.807 240.56 450.031C238.579 448.388 236.156 449.158 233.293 452.339C232.196 453.553 231.093 455.101 229.985 456.982C228.904 458.886 228.098 460.838 227.569 462.839C227.088 464.834 227.306 466.234 228.22 467.038Z" fill="#693D14"/>
<path d="M252.315 488.261C248.972 486.004 246.824 483.065 245.871 479.442C244.967 475.811 245.565 472.439 247.667 469.326C249.768 466.214 252.653 464.427 256.32 463.967C260.007 463.477 263.436 464.303 266.606 466.443C269.891 468.661 271.996 471.572 272.92 475.175C273.844 478.778 273.245 482.15 271.124 485.291C269.023 488.403 266.157 490.224 262.528 490.752C258.918 491.251 255.514 490.421 252.315 488.261ZM254.653 486.756C256.497 488.002 258.616 486.852 261.009 483.307C261.885 482.01 262.739 480.342 263.57 478.302C264.431 476.282 264.964 474.188 265.17 472.019C265.404 469.87 265.003 468.445 263.965 467.744C262.957 467.063 261.935 467.023 260.899 467.625C259.864 468.226 258.733 469.435 257.507 471.25C256.865 472.201 256.221 473.403 255.576 474.856C254.931 476.308 254.363 477.833 253.871 479.432C253.399 481.001 253.197 482.48 253.266 483.869C253.384 485.249 253.846 486.211 254.653 486.756Z" fill="#693D14"/>
<path d="M319.843 517.272C319.541 518.091 319.476 519.018 319.647 520.055C319.818 521.093 319.816 521.801 319.641 522.179L319.553 522.369C319.276 522.968 318.759 523.093 318.001 522.742L308.534 518.361C307.777 518.01 307.537 517.535 307.814 516.935L307.902 516.746C308.063 516.399 308.625 515.97 309.59 515.458C310.555 514.947 311.195 514.266 311.512 513.417L314.916 504.819C315.885 502.394 316.344 500.576 316.292 499.364C316.254 498.12 315.715 497.257 314.673 496.775C313.727 496.337 312.811 496.412 311.926 496.998C311.042 497.585 310.285 498.557 309.657 499.914C309.445 500.62 309.186 501.305 308.879 501.968L304.98 510.393C304.615 511.182 304.534 512.103 304.736 513.155C304.939 514.206 304.953 514.922 304.778 515.3L304.69 515.49C304.413 516.089 303.895 516.214 303.138 515.863L293.718 511.504C292.961 511.153 292.721 510.678 292.998 510.078L293.086 509.889C293.261 509.51 293.8 509.051 294.701 508.51C295.635 507.984 296.284 507.327 296.649 506.538L300.811 497.544C302.637 493.599 302.477 491.131 300.331 490.137C299.289 489.656 298.311 489.701 297.394 490.273C296.478 490.845 295.706 491.81 295.078 493.167L290.259 503.58C289.893 504.369 289.875 505.319 290.205 506.429C290.534 507.539 290.611 508.284 290.435 508.662L290.348 508.852C290.07 509.451 289.553 509.576 288.795 509.225L278.571 504.493C277.814 504.143 277.574 503.668 277.851 503.068L277.939 502.879C278.114 502.5 278.731 502.077 279.791 501.609C280.85 501.142 281.562 500.513 281.928 499.725L286.243 490.4C286.535 489.768 286.563 489.13 286.325 488.483C286.134 487.82 285.914 487.22 285.664 486.683C285.415 486.146 285.378 485.688 285.553 485.31L285.619 485.168C285.808 484.757 286.37 484.538 287.302 484.51L295.914 484.53C296.599 484.54 297.041 484.745 297.24 485.143C297.438 485.542 297.421 485.994 297.187 486.499L296.398 488.203C298.785 486.855 301.351 486.816 304.096 488.087C307.599 489.708 309.588 492.199 310.063 495.561C311.263 494.622 312.632 494.107 314.17 494.014C315.722 493.889 317.287 494.192 318.865 494.922C321.168 495.988 322.767 497.667 323.661 499.958C324.586 502.264 324.357 505.242 322.974 508.893L319.843 517.272Z" fill="#693D14"/>
<path d="M336.049 528.773C332.205 527.549 329.316 525.334 327.382 522.127C325.491 518.897 325.115 515.493 326.255 511.915C327.394 508.336 329.659 505.81 333.048 504.334C336.448 502.826 339.97 502.652 343.615 503.813C347.392 505.016 350.231 507.215 352.133 510.412C354.034 513.609 354.41 517.013 353.26 520.624C352.12 524.202 349.883 526.756 346.55 528.286C343.227 529.782 339.727 529.945 336.049 528.773ZM337.868 526.671C339.989 527.346 341.698 525.646 342.996 521.57C343.47 520.079 343.82 518.238 344.043 516.047C344.3 513.866 344.221 511.706 343.807 509.567C343.427 507.439 342.64 506.185 341.447 505.805C340.288 505.436 339.296 505.685 338.472 506.554C337.648 507.423 336.903 508.901 336.239 510.989C335.89 512.082 335.611 513.416 335.402 514.992C335.192 516.567 335.076 518.191 335.055 519.863C335.044 521.501 335.267 522.977 335.725 524.291C336.226 525.582 336.94 526.375 337.868 526.671Z" fill="#693D14"/>
<path d="M375.946 512.268C377.405 512.596 378.452 513.329 379.087 514.47C379.756 515.618 379.927 516.921 379.599 518.38C378.883 521.569 377.219 522.871 374.607 522.285C373.555 522.048 372.811 521.632 372.375 521.035C371.946 520.404 371.749 519.772 371.785 519.139C371.854 518.513 371.806 517.932 371.641 517.396C371.484 516.826 371.134 516.48 370.591 516.358C369.336 516.077 368.343 517.564 367.612 520.821L365.487 530.287C365.296 531.136 365.547 532.083 366.239 533.129C366.972 534.149 367.293 534.862 367.202 535.27L367.156 535.473C367.011 536.118 366.532 536.349 365.718 536.166L354.776 533.71C353.961 533.527 353.627 533.113 353.771 532.469L353.817 532.265C353.908 531.858 354.385 531.324 355.246 530.662C356.115 529.966 356.645 529.194 356.835 528.345L359.108 518.218C359.261 517.539 359.187 516.917 358.886 516.35C358.586 515.784 358.27 515.285 357.939 514.855C357.608 514.424 357.488 514.005 357.579 513.598L357.614 513.445C357.743 512.869 358.244 512.464 359.115 512.232L367.045 510.484C367.777 510.399 368.256 510.488 368.482 510.753C368.707 511.017 368.756 511.438 368.626 512.015L367.792 515.73C369.7 512.63 372.418 511.476 375.946 512.268Z" fill="#693D14"/>
<path d="M400.078 533.595C400.51 533.27 400.938 533.225 401.361 533.461C401.823 533.667 401.998 534.043 401.886 534.589C401.572 536.301 400.324 537.915 398.142 539.431C395.96 540.947 393.337 541.488 390.273 541.053C386.52 540.52 383.628 538.88 381.594 536.132C379.561 533.385 378.821 530.066 379.373 526.176C379.902 522.458 381.574 519.587 384.39 517.564C387.245 515.511 390.412 514.731 393.889 515.225C397.022 515.67 399.346 516.738 400.862 518.428C402.378 520.119 403.006 521.876 402.747 523.701C402.542 525.147 401.719 526.119 400.278 526.617L389.18 530.941C390.274 533.379 392.078 534.777 394.591 535.134C395.658 535.285 396.686 535.22 397.674 534.939C398.701 534.629 399.503 534.18 400.078 533.595ZM392.6 517.624C391.567 517.477 390.65 517.873 389.849 518.813C389.083 519.758 388.59 521.005 388.37 522.554C388.076 524.62 388.078 526.464 388.374 528.087L393.587 525.877C394.571 525.384 395.143 524.57 395.304 523.434C395.466 522.298 395.339 521.086 394.925 519.798C394.545 518.515 393.77 517.79 392.6 517.624Z" fill="#693D14"/>
<path d="M414.212 542.237C413.143 542.993 411.812 543.31 410.217 543.189C408.622 543.067 407.336 542.551 406.359 541.64C405.382 540.728 404.956 539.458 405.08 537.828C405.201 536.233 405.814 535.059 406.917 534.307C408.021 533.554 409.37 533.238 410.965 533.359C412.56 533.481 413.828 533.996 414.77 534.904C415.747 535.816 416.175 537.069 416.054 538.664C415.932 540.259 415.318 541.45 414.212 542.237Z" fill="#693D14"/>
<path d="M457.758 537.364C457.786 538.232 458.162 539.09 458.885 539.936C459.607 540.748 459.975 541.363 459.988 541.78L459.995 541.988C460.016 542.648 459.627 542.992 458.828 543.017L451.373 543.258C450.469 543.287 450.004 542.867 449.976 541.998L449.96 541.529C448.376 543.111 446.281 543.944 443.674 544.028C440.303 544.136 437.364 543.083 434.857 540.868C432.384 538.616 431.082 535.457 430.951 531.391C430.829 527.603 431.945 524.453 434.3 521.942C436.653 519.396 439.515 518.069 442.886 517.96C445.006 517.892 446.812 518.321 448.303 519.247L448.079 512.313C448.057 511.618 447.812 511.034 447.345 510.562C446.876 510.056 446.393 509.636 445.895 509.305C445.431 508.937 445.192 508.544 445.179 508.127L445.174 507.971C445.152 507.311 445.537 506.846 446.329 506.577L454.382 503.865C455.896 503.329 456.674 503.721 456.717 505.042L457.758 537.364ZM445.677 541.406C446.617 541.41 447.386 541.003 447.986 540.183C448.621 539.363 448.916 538.275 448.872 536.919L448.548 526.858C448.494 525.19 447.96 523.711 446.944 522.422C445.962 521.096 444.863 520.453 443.646 520.493C441.074 520.576 439.771 522.757 439.735 527.038C439.718 528.673 439.918 530.563 440.335 532.707C440.786 534.849 441.477 536.845 442.406 538.693C443.369 540.506 444.46 541.41 445.677 541.406Z" fill="#693D14"/>
<path d="M477.785 541.332C473.786 541.857 470.229 541.079 467.115 538.998C464.031 536.878 462.244 533.956 461.755 530.233C461.266 526.509 462.242 523.26 464.684 520.484C467.12 517.674 470.235 516.02 474.027 515.522C477.958 515.006 481.462 515.79 484.542 517.876C487.622 519.962 489.408 522.884 489.902 526.641C490.391 530.365 489.451 533.627 487.084 536.428C484.711 539.195 481.612 540.829 477.785 541.332ZM478.538 538.655C480.745 538.365 481.57 536.1 481.013 531.86C480.809 530.308 480.343 528.493 479.614 526.414C478.919 524.331 477.93 522.409 476.647 520.649C475.398 518.884 474.153 518.083 472.912 518.246C471.705 518.405 470.914 519.052 470.537 520.189C470.16 521.326 470.114 522.98 470.399 525.152C470.549 526.29 470.863 527.616 471.343 529.131C471.822 530.647 472.408 532.165 473.099 533.688C473.785 535.176 474.614 536.417 475.587 537.412C476.589 538.368 477.573 538.782 478.538 538.655Z" fill="#693D14"/>
<path d="M515.916 506.995C519.037 506.149 522.08 506.476 525.045 507.977C528.035 509.436 530.049 512.079 531.087 515.904C532.134 519.764 531.81 523.22 530.117 526.274C528.456 529.318 525.999 531.282 522.743 532.165C520.26 532.839 518.029 532.651 516.051 531.602L516.174 532.055C516.411 532.928 516.093 533.483 515.221 533.719L507.606 535.731C506.834 535.94 506.361 535.726 506.188 535.089L506.134 534.887C506.024 534.484 506.196 533.789 506.649 532.802C507.093 531.781 507.196 530.834 506.959 529.961L500.746 507.057C500.509 506.184 499.871 505.493 498.832 504.982C497.817 504.429 497.255 503.951 497.146 503.548L497.091 503.346C496.946 502.81 497.271 502.217 498.068 501.568L504.851 495.891C505.398 495.383 505.933 495.165 506.458 495.239C506.982 495.313 507.34 495.702 507.531 496.407L511.191 509.898C512.226 508.536 513.801 507.569 515.916 506.995ZM521.269 529.917C523.819 529.225 524.521 526.765 523.374 522.536C522.828 520.523 522.114 518.555 521.232 516.632C520.384 514.7 519.322 513.043 518.046 511.66C516.803 510.267 515.612 509.726 514.471 510.035C513.564 510.281 512.935 510.884 512.583 511.844C512.256 512.762 512.279 513.909 512.652 515.285L515.301 525.05C515.72 526.594 516.534 527.869 517.743 528.874C518.986 529.87 520.161 530.217 521.269 529.917Z" fill="#693D14"/>
<path d="M555.181 511.987C555.406 511.496 555.761 511.252 556.245 511.258C556.75 511.218 557.083 511.465 557.244 511.999C557.785 513.653 557.459 515.666 556.264 518.04C555.069 520.414 553.022 522.14 550.121 523.219C546.569 524.54 543.244 524.479 540.146 523.034C537.049 521.589 534.815 519.025 533.445 515.343C532.136 511.823 532.236 508.502 533.746 505.38C535.277 502.214 537.688 500.019 540.98 498.794C543.945 497.691 546.498 497.521 548.636 498.283C550.775 499.046 552.166 500.291 552.808 502.018C553.317 503.387 553.058 504.634 552.029 505.758L544.338 514.852C546.462 516.474 548.714 516.842 551.093 515.957C552.103 515.581 552.975 515.034 553.71 514.316C554.465 513.552 554.955 512.776 555.181 511.987ZM540.991 501.517C540.013 501.881 539.396 502.666 539.141 503.875C538.918 505.07 539.079 506.402 539.625 507.868C540.352 509.824 541.233 511.444 542.268 512.729L545.796 508.3C546.425 507.398 546.539 506.409 546.139 505.334C545.739 504.258 545.05 503.253 544.072 502.319C543.126 501.372 542.099 501.105 540.991 501.517Z" fill="#693D14"/>
<path d="M573.297 513.471C570.897 514.577 568.653 514.692 566.565 513.817C564.508 512.927 562.832 511.076 561.537 508.265L556.364 497.038L554.564 497.868C554.248 498.013 553.936 498.042 553.628 497.954C553.336 497.821 553.118 497.596 552.972 497.28L552.492 496.238C552.158 495.511 552.353 494.981 553.08 494.646L553.98 494.232C555.433 493.562 556.484 492.561 557.133 491.228C557.768 489.864 557.908 488.382 557.555 486.784C557.334 485.89 557.571 485.283 558.266 484.963L559.356 484.461C560.209 484.068 560.824 484.282 561.202 485.103L563.407 489.888L568.286 487.64C568.602 487.494 568.906 487.488 569.197 487.622C569.505 487.71 569.732 487.911 569.878 488.227L570.358 489.269C570.504 489.585 570.517 489.905 570.398 490.228C570.295 490.504 570.086 490.716 569.771 490.861L564.891 493.109L570.13 504.479C570.493 505.268 570.99 505.805 571.619 506.09C572.233 506.343 572.84 506.331 573.44 506.054C574.798 505.429 575.571 504.364 575.759 502.861C575.849 502.475 576.029 502.201 576.299 502.038C576.554 501.844 576.813 501.782 577.075 501.853C577.369 501.909 577.581 502.079 577.712 502.363C578.629 504.353 578.726 506.433 578.003 508.604C577.297 510.728 575.729 512.351 573.297 513.471Z" fill="#693D14"/>
<path d="M593.248 503.313C590.929 504.581 588.698 504.849 586.555 504.119C584.443 503.371 582.644 501.64 581.16 498.924L575.23 488.078L573.491 489.028C573.186 489.195 572.877 489.246 572.563 489.179C572.263 489.066 572.03 488.856 571.863 488.551L571.313 487.544C570.929 486.843 571.088 486.3 571.79 485.916L572.659 485.441C574.063 484.674 575.043 483.603 575.599 482.229C576.139 480.824 576.178 479.337 575.716 477.766C575.435 476.89 575.63 476.268 576.301 475.901L577.354 475.325C578.178 474.875 578.806 475.046 579.24 475.84L581.767 480.462L586.481 477.885C586.786 477.718 587.089 477.692 587.388 477.805C587.702 477.872 587.942 478.057 588.109 478.362L588.659 479.369C588.826 479.674 588.861 479.992 588.764 480.322C588.681 480.606 588.487 480.831 588.182 480.997L583.468 483.574L589.473 494.558C589.89 495.321 590.422 495.823 591.069 496.064C591.699 496.274 592.304 496.221 592.883 495.904C594.195 495.187 594.894 494.072 594.978 492.559C595.042 492.168 595.202 491.882 595.46 491.701C595.702 491.49 595.955 491.411 596.222 491.463C596.519 491.499 596.742 491.654 596.892 491.929C597.943 493.851 598.182 495.92 597.61 498.135C597.052 500.303 595.598 502.029 593.248 503.313Z" fill="#693D14"/>
<path d="M616.537 478.712C616.65 478.183 616.943 477.868 617.417 477.768C617.901 477.619 618.28 477.788 618.553 478.274C619.442 479.77 619.562 481.806 618.914 484.383C618.265 486.96 616.643 489.091 614.048 490.777C610.869 492.841 607.61 493.506 604.272 492.771C600.935 492.036 598.196 490.021 596.056 486.725C594.011 483.576 593.384 480.313 594.178 476.937C594.981 473.513 596.855 470.845 599.801 468.932C602.455 467.209 604.909 466.486 607.162 466.764C609.416 467.042 611.044 467.954 612.048 469.5C612.843 470.725 612.862 471.998 612.103 473.32L606.579 483.872C609.006 484.991 611.283 484.86 613.412 483.477C614.316 482.89 615.049 482.166 615.609 481.305C616.179 480.396 616.489 479.531 616.537 478.712ZM600.405 471.587C599.53 472.155 599.1 473.057 599.114 474.291C599.157 475.507 599.605 476.771 600.457 478.084C601.593 479.833 602.806 481.223 604.096 482.251L606.573 477.159C606.991 476.142 606.887 475.152 606.262 474.19C605.637 473.227 604.745 472.397 603.587 471.698C602.457 470.98 601.397 470.943 600.405 471.587Z" fill="#693D14"/>
<path d="M623.9 451.49C625.085 450.578 626.319 450.244 627.602 450.485C628.912 450.706 630.023 451.409 630.935 452.594C632.927 455.185 632.862 457.297 630.74 458.929C629.886 459.586 629.089 459.891 628.352 459.845C627.593 459.77 626.981 459.517 626.517 459.084C626.08 458.631 625.603 458.296 625.086 458.079C624.547 457.836 624.058 457.883 623.617 458.222C622.597 459.007 623.104 460.722 625.139 463.368L631.054 471.058C631.584 471.747 632.472 472.161 633.719 472.299C634.972 472.388 635.726 472.598 635.98 472.929L636.107 473.094C636.51 473.618 636.381 474.134 635.719 474.643L626.83 481.479C626.168 481.988 625.636 481.981 625.233 481.457L625.106 481.292C624.852 480.961 624.746 480.253 624.788 479.167C624.81 478.054 624.555 477.153 624.025 476.464L617.697 468.236C617.273 467.685 616.748 467.344 616.12 467.212C615.493 467.081 614.907 467.004 614.365 466.983C613.822 466.962 613.423 466.786 613.169 466.455L613.074 466.331C612.713 465.862 612.723 465.219 613.102 464.401L616.833 457.188C617.236 456.571 617.611 456.261 617.959 456.257C618.307 456.252 618.661 456.485 619.021 456.953L621.343 459.971C620.181 456.522 621.033 453.695 623.9 451.49Z" fill="#693D14"/>
<path d="M652.096 460.033C651.885 461.325 651.177 462.497 649.972 463.549C648.767 464.6 647.497 465.155 646.163 465.212C644.828 465.27 643.623 464.683 642.548 463.452C641.496 462.247 641.089 460.987 641.326 459.672C641.563 458.357 642.284 457.174 643.489 456.122C644.694 455.07 645.951 454.527 647.259 454.493C648.594 454.435 649.787 455.009 650.839 456.214C651.891 457.419 652.31 458.692 652.096 460.033Z" fill="#693D14"/>
<defs>
<filter id="filter0_f" x="730.694" y="498.744" width="69.5981" height="82.7636" filterUnits="userSpaceOnUse" color-interpolation-filters="sRGB">
<feFlood flood-opacity="0" result="BackgroundImageFix"/>
<feBlend mode="normal" in="SourceGraphic" in2="BackgroundImageFix" result="shape"/>
<feGaussianBlur stdDeviation="0.303811" result="effect1_foregroundBlur"/>
</filter>
</defs>
</svg>
