<svg width="891" height="626" viewBox="0 0 891 626" fill="none" xmlns="http://www.w3.org/2000/svg">
<rect x="0.729492" width="890.271" height="625.648" fill="#E5DBF1"/>
<path d="M314.602 173.961C309.38 173.961 308.074 172.755 308.074 170.244C308.074 166.528 310.183 165.524 315.406 165.524C322.336 165.524 324.847 166.93 324.847 169.642C324.847 172.253 321.733 173.961 314.602 173.961ZM312.995 216.144C341.921 216.345 351.664 209.817 351.664 195.956C351.664 186.917 347.747 181.694 337.803 180.188C336.397 179.987 335.694 179.284 335.694 178.179C335.694 177.074 336.297 176.572 337.803 175.969C344.332 173.76 346.943 171.048 346.943 163.917C346.943 154.175 338.707 149.956 312.895 149.956C294.314 149.956 289.895 152.467 287.685 159.297C285.878 165.825 286.882 172.052 286.179 180.79C285.677 190.231 283.367 197.061 284.572 204.192C286.078 212.428 291.703 216.144 312.995 216.144ZM315.305 182.799C321.934 182.799 324.847 184.506 324.847 187.319C324.847 190.332 322.135 191.738 315.607 191.738C309.882 191.738 307.773 190.734 307.773 187.52C307.773 184.205 309.48 182.799 315.305 182.799ZM396.172 177.777C393.962 177.777 392.657 177.978 390.648 177.978C388.237 177.978 386.329 176.773 386.128 173.157C385.927 168.838 390.045 165.122 389.844 159.397C389.644 152.768 385.927 149.956 376.486 149.956C367.748 149.956 363.229 152.668 361.22 159.096C359.01 166.629 360.216 174.061 359.613 180.69C359.01 188.223 356.299 195.956 358.006 204.092C359.412 210.821 364.836 215.943 380.303 215.943C399.285 215.943 406.316 211.022 406.316 196.358C406.316 182.196 402.299 177.777 396.172 177.777ZM446.238 149.856C420.727 149.856 414.6 159.498 413.897 179.485C413.697 190.533 409.378 195.354 410.081 204.092C410.884 212.127 415.906 216.044 428.26 216.044C439.308 216.044 443.928 211.624 443.928 204.795C443.928 196.86 439.91 195.554 439.91 191.637C439.91 189.428 440.915 187.921 446.238 187.921C451.461 187.921 452.465 189.428 452.465 191.637C452.465 195.554 448.347 196.86 448.347 204.795C448.347 211.624 453.068 216.044 464.116 216.044C476.369 216.044 481.391 212.127 482.194 204.092C482.897 195.354 478.679 190.533 478.478 179.485C477.775 159.498 471.749 149.856 446.238 149.856ZM446.238 177.375C439.207 177.375 437.199 176.472 437.199 173.358C437.199 169.742 440.212 168.738 446.238 168.738C452.164 168.738 455.177 169.742 455.177 173.358C455.177 176.472 453.168 177.375 446.238 177.375ZM486.144 184.707C486.144 205.899 492.874 216.345 519.991 216.244C539.275 216.345 547.913 211.122 547.913 196.559C547.913 186.817 545 181.192 538.572 181.192C534.354 181.192 530.136 182.397 524.009 182.397C520.695 182.397 517.681 180.79 517.681 177.375C517.681 173.358 520.594 171.751 524.009 171.751C529.232 171.751 532.847 173.659 538.271 173.659C543.293 173.659 544.9 169.441 544.9 164.218C544.9 154.074 537.769 150.057 519.489 149.956C495.686 149.956 486.144 163.314 486.144 184.707ZM584.546 185.41C587.76 185.41 589.97 188.524 590.171 199.17C590.472 211.423 596.498 216.144 607.647 216.144C619.498 216.144 624.621 212.026 624.621 199.07C624.621 188.524 620.503 182.196 613.372 182.196C611.564 182.196 609.555 182.799 607.345 182.799C604.433 182.799 602.826 181.393 602.826 179.183C602.826 175.869 605.337 173.157 608.852 173.157C610.057 173.157 612.267 173.358 613.372 173.358C618.695 173.358 621.607 169.943 621.607 161.506C621.607 152.768 618.293 149.956 607.546 149.956C596.398 149.956 592.983 155.079 591.677 163.214C590.171 171.952 588.966 174.061 585.45 174.061C581.232 174.061 580.931 170.948 582.638 163.616C584.948 154.978 582.337 149.956 571.891 149.956C562.752 149.956 558.433 152.668 556.424 159.699C554.616 166.428 556.525 173.86 555.821 180.589C555.319 187.72 552.005 195.856 553.009 203.589C554.315 212.327 559.738 216.144 571.891 216.144C582.437 216.144 586.254 211.725 586.254 204.192C586.254 197.362 581.533 194.249 581.533 189.327C581.533 186.817 582.538 185.41 584.546 185.41ZM345.416 289.777C343.206 289.777 341.901 289.978 339.892 289.978C337.482 289.978 335.573 288.773 335.372 285.157C335.172 280.838 339.289 277.122 339.089 271.397C338.888 264.768 335.172 261.956 325.73 261.956C316.992 261.956 312.473 264.668 310.464 271.096C308.255 278.629 309.46 286.061 308.857 292.69C308.255 300.223 305.543 307.956 307.25 316.092C308.656 322.821 314.08 327.943 329.547 327.943C348.53 327.943 355.56 323.022 355.56 308.358C355.56 294.196 351.543 289.777 345.416 289.777ZM377.109 261.856C370.079 261.856 365.86 264.367 363.952 270.493C362.044 277.423 364.053 283.048 363.35 292.389C362.847 302.934 358.83 308.157 360.035 316.795C361.341 324.93 366.965 328.144 377.109 328.144C387.253 328.144 392.878 324.93 394.184 316.795C395.389 308.157 391.371 302.934 390.769 292.389C390.166 283.048 392.074 277.423 390.267 270.493C388.258 264.367 384.039 261.856 377.109 261.856ZM434.743 290.982C428.316 290.982 427.512 286.664 428.014 279.03C428.617 271.297 429.119 261.856 415.661 261.856C407.626 261.856 404.211 264.065 402.503 267.48C399.691 272.904 400.796 277.926 401.298 284.253C401.8 291.786 402.503 301.026 408.228 312.375C413.953 324.026 421.787 328.144 434.743 328.144C447.7 328.144 455.534 324.127 461.359 312.375C466.984 301.026 467.687 291.786 468.189 284.253C468.792 278.026 469.796 272.904 467.084 267.48C465.276 264.065 461.962 261.856 453.927 261.856C440.368 261.856 440.971 271.498 441.573 279.03C441.975 286.764 441.171 290.982 434.743 290.982ZM505.519 328.144C530.729 328.144 535.751 324.428 535.751 312.074C535.751 304.341 533.139 300.725 527.615 300.725C519.681 300.725 516.567 302.332 510.24 302.332C507.126 302.332 504.314 301.327 504.314 298.214C504.314 296.205 505.519 294.799 508.432 294.799C514.659 294.799 519.781 297.21 524.803 297.21C528.921 297.21 530.729 294.598 530.729 290.782C530.729 285.961 529.021 283.851 524.803 283.851C518.576 283.851 514.96 285.86 508.532 285.86C505.519 285.86 504.314 284.454 504.314 282.445C504.314 279.332 506.825 278.428 510.139 278.428C516.768 278.428 519.681 280.035 526.209 280.135C530.628 280.135 532.336 277.022 532.336 272.402C532.336 264.467 529.122 261.956 504.214 261.956C485.131 261.956 480.611 264.869 478.602 272.603C476.895 279.834 477.698 285.961 477.096 292.69C476.493 299.218 474.083 306.851 474.986 314.686C476.292 323.926 482.218 328.144 505.519 328.144ZM572.585 299.72C572.585 301.93 570.777 302.934 568.467 302.934C561.135 302.934 557.419 298.214 549.685 298.214C543.257 298.214 539.441 303.939 539.441 311.572C539.441 321.817 546.773 328.044 569.572 328.044C594.179 328.044 602.616 320.009 602.616 304.843C602.616 290.079 593.476 286.362 577.707 284.655C572.987 284.253 570.476 283.249 570.476 280.939C570.476 278.93 572.083 277.825 575.096 277.825C582.428 277.825 586.747 281.742 593.074 281.742C597.092 281.742 600.105 279.03 600.105 274.009C600.105 266.978 594.179 262.258 570.978 262.258C548.078 262.258 542.153 269.891 542.153 279.734C542.153 292.087 550.489 294.598 566.358 296.205C570.777 296.506 572.585 297.511 572.585 299.72ZM286.317 397.258C281.697 397.258 280.492 392.637 280.894 386.913C281.798 379.48 281.396 373.956 264.121 373.956C251.667 373.956 247.247 376.467 245.339 382.694C243.531 389.223 245.239 394.948 244.737 404.288C243.933 415.135 240.619 420.358 241.824 428.694C243.13 436.528 247.951 440.044 257.392 440.044C266.531 440.044 270.147 436.327 270.147 429.297C270.147 420.458 265.627 417.646 265.627 409.712C265.627 405.895 266.531 404.087 268.841 404.087C271.754 404.087 273.763 408.205 273.763 412.423C273.763 418.249 272.859 422.266 272.859 428.092C272.859 435.122 275.972 439.341 286.317 439.341C296.662 439.341 299.776 435.122 299.876 428.092C299.776 422.266 298.872 418.249 298.972 412.423C298.872 408.205 300.881 404.087 303.894 404.087C306.103 404.087 307.007 405.895 307.108 409.712C307.007 417.646 302.588 420.458 302.588 429.297C302.588 436.327 306.103 440.044 315.344 440.044C324.785 440.044 329.606 436.528 330.911 428.694C332.016 420.358 328.702 415.135 327.999 404.288C327.396 394.948 329.103 389.223 327.396 382.694C325.387 376.467 320.968 373.956 308.514 373.956C291.239 373.956 290.937 379.48 291.741 386.913C292.143 392.637 290.937 397.258 286.317 397.258ZM372.36 373.856C346.849 373.856 340.723 383.498 340.02 403.485C339.819 414.533 335.5 419.354 336.203 428.092C337.006 436.127 342.028 440.044 354.382 440.044C365.43 440.044 370.05 435.624 370.05 428.795C370.05 420.86 366.033 419.554 366.033 415.637C366.033 413.428 367.037 411.921 372.36 411.921C377.583 411.921 378.587 413.428 378.587 415.637C378.587 419.554 374.469 420.86 374.469 428.795C374.469 435.624 379.19 440.044 390.238 440.044C402.491 440.044 407.513 436.127 408.317 428.092C409.02 419.354 404.801 414.533 404.6 403.485C403.897 383.498 397.871 373.856 372.36 373.856ZM372.36 401.375C365.33 401.375 363.321 400.472 363.321 397.358C363.321 393.742 366.334 392.738 372.36 392.738C378.286 392.738 381.299 393.742 381.299 397.358C381.299 400.472 379.29 401.375 372.36 401.375ZM451.171 405.895C451.171 401.677 452.677 400.873 454.987 400.873C457.297 400.873 459.005 401.576 460.813 401.576C464.328 401.576 466.236 398.362 466.236 391.834C466.236 378.175 460.813 374.258 438.214 374.258C415.717 374.258 410.293 378.175 410.293 391.834C410.293 398.362 412.201 401.576 415.717 401.576C417.525 401.576 419.232 400.873 421.542 400.873C423.852 400.873 425.359 401.677 425.359 405.895C425.359 411.72 418.228 418.048 418.228 426.686C418.228 436.227 425.559 439.943 438.214 439.943C450.97 439.943 458.302 436.227 458.302 426.686C458.302 418.048 451.171 411.72 451.171 405.895ZM511.146 405.895C511.146 401.677 512.653 400.873 514.963 400.873C517.273 400.873 518.98 401.576 520.788 401.576C524.304 401.576 526.212 398.362 526.212 391.834C526.212 378.175 520.788 374.258 498.19 374.258C475.692 374.258 470.269 378.175 470.269 391.834C470.269 398.362 472.177 401.576 475.692 401.576C477.5 401.576 479.208 400.873 481.518 400.873C483.828 400.873 485.334 401.677 485.334 405.895C485.334 411.72 478.203 418.048 478.203 426.686C478.203 436.227 485.535 439.943 498.19 439.943C510.946 439.943 518.277 436.227 518.277 426.686C518.277 418.048 511.146 411.72 511.146 405.895ZM561.303 440.144C586.512 440.144 591.534 436.428 591.534 424.074C591.534 416.341 588.923 412.725 583.399 412.725C575.464 412.725 572.351 414.332 566.023 414.332C562.91 414.332 560.097 413.327 560.097 410.214C560.097 408.205 561.303 406.799 564.215 406.799C570.442 406.799 575.565 409.21 580.587 409.21C584.704 409.21 586.512 406.598 586.512 402.782C586.512 397.961 584.805 395.851 580.587 395.851C574.359 395.851 570.744 397.86 564.316 397.86C561.303 397.86 560.097 396.454 560.097 394.445C560.097 391.332 562.608 390.428 565.923 390.428C572.552 390.428 575.464 392.035 581.993 392.135C586.412 392.135 588.119 389.022 588.119 384.402C588.119 376.467 584.905 373.956 559.997 373.956C540.914 373.956 536.394 376.869 534.386 384.603C532.678 391.834 533.482 397.961 532.879 404.69C532.277 411.218 529.866 418.851 530.77 426.686C532.076 435.926 538.001 440.144 561.303 440.144ZM662.734 391.231C662.734 379.279 652.289 373.956 626.678 373.956C608.499 373.956 601.468 377.07 599.258 385.105C597.35 391.934 597.953 398.161 597.35 404.589C596.747 411.419 594.739 418.952 595.743 427.288C597.25 436.528 603.276 440.144 614.926 440.144C623.865 440.144 629.289 435.825 629.289 429.096C629.289 422.367 624.568 419.655 624.568 415.035C624.568 413.327 625.372 412.022 627.782 412.022C631.599 412.022 634.009 415.135 634.009 423.974C634.11 435.323 639.935 440.044 651.184 440.044C662.433 440.044 667.053 435.122 667.053 424.375C667.053 416.14 663.538 409.511 656.507 409.511C654.298 409.511 652.088 410.013 649.477 410.013C647.167 410.013 645.761 409.41 645.761 408.004C645.761 406.799 646.765 406.096 648.472 405.694C658.114 403.686 662.734 400.773 662.734 391.231ZM620.752 397.559C620.752 393.441 623.966 392.738 628.084 392.738C635.918 392.738 638.83 394.144 638.83 397.458C638.83 400.773 634.913 402.38 628.184 402.38C622.459 402.38 620.752 400.873 620.752 397.559Z" fill="#291647" fill-opacity="0.92"/>
<path d="M764.588 530.173C764.714 528.024 765.19 526.403 766.04 524.896C768.748 520.103 771.335 515.234 774.231 510.556C775.803 508.037 777.662 505.71 779.772 503.622C781.511 501.894 783.96 501.866 786.268 502.617C786.782 502.784 787.222 503.134 787.549 503.589C788.479 503.951 788.692 505.05 789.092 505.725C790.48 508.016 791.03 510.718 790.649 513.37C790.601 513.726 790.171 514.238 789.845 514.308C787.734 514.756 786.189 516.072 784.882 517.624C783.35 519.432 781.929 521.331 780.627 523.311C778.819 526.079 777.142 528.936 775.491 531.792C774.163 534.09 772.494 535.757 769.611 535.327C768.723 535.214 767.876 534.883 767.147 534.363C765.674 533.224 764.407 531.866 764.588 530.173Z" fill="#291647" fill-opacity="0.92"/>
<path d="M770.938 512.312C768.142 518.193 764.193 523.251 762.903 529.625C762.687 529.518 762.48 529.394 762.283 529.255C759.488 526.883 756.69 524.517 753.922 522.114C753.613 521.847 753.215 521.289 753.308 521.015C754.015 518.914 754.836 516.851 755.614 514.772C755.885 514.049 756.453 513.969 757.136 513.91C761.055 513.573 764.971 513.204 768.885 512.804C769.492 512.751 770.08 512.53 770.938 512.312Z" fill="#291647" fill-opacity="0.92"/>
<path d="M759.691 487.721C762.395 487.781 764.586 488.562 766.187 490.533C766.649 491.099 766.842 491.895 767.099 492.608C767.16 492.771 767.025 493.068 766.899 493.229C765.862 494.488 764.763 495.697 763.771 496.987C763.152 497.79 762.538 498.108 761.445 498.058C759.251 497.957 757.044 498.142 754.842 498.234C752.741 498.325 750.644 498.453 748.543 498.542C748.437 498.545 748.331 498.524 748.235 498.48C748.138 498.436 748.053 498.371 747.986 498.289C747.95 498.185 747.937 498.074 747.95 497.965C747.963 497.855 748.001 497.75 748.061 497.658C749.352 495.938 750.65 494.223 751.984 492.536C752.614 491.732 753.338 491.005 753.992 490.228C755.137 488.882 756.805 488.536 758.345 487.996C758.785 487.866 759.236 487.774 759.691 487.721V487.721Z" fill="#291647" fill-opacity="0.92"/>
<path d="M765.062 498.027C765.239 497.694 765.306 497.461 765.454 497.308C766.726 496.009 767.853 494.496 769.335 493.492C771.026 492.365 772.939 492.192 775.07 493.026C777.384 493.93 778.798 495.518 779.905 497.527C780.395 498.415 780.688 499.429 780.954 500.418C781.028 500.699 780.777 501.221 780.516 501.41C779.59 502.105 778.601 502.718 777.619 503.336C777.386 503.437 777.141 503.504 776.89 503.537C776.812 503.303 776.75 503.065 776.705 502.822C776.414 500.247 775.418 498.248 772.615 498.17C770.454 498.108 768.289 498.13 766.123 498.108C765.814 498.12 765.494 498.067 765.062 498.027Z" fill="#291647" fill-opacity="0.92"/>
<g filter="url(#filter0_f)">
<path d="M782.309 580.787C777.689 580.787 773.079 580.808 768.465 580.787C764.6 580.765 760.733 580.663 756.866 580.643C753.727 580.627 750.587 580.675 747.445 580.707C746.166 580.721 745.985 580.466 746.039 579.195C746.14 577.128 746.132 575.057 746.184 572.99C746.206 572.124 746.268 571.258 746.312 570.392C746.415 568.384 746.513 566.375 746.62 564.366C746.622 563.904 746.672 563.442 746.768 562.99C747.275 561.134 746.314 559.435 746.228 557.643C746.199 557.409 746.109 557.186 745.967 556.998C744.099 554.278 742.363 551.494 740.945 548.501C739.766 546.018 738.31 543.67 737.036 541.231C735.278 537.867 733.517 534.504 731.874 531.083C730.954 529.167 730.927 527.118 731.43 525.023C732.078 522.307 733.364 519.871 734.527 517.374C735.61 515.052 736.57 512.667 737.757 510.399C739.336 507.388 741.019 504.434 742.807 501.539C743.129 501.019 744.115 500.886 744.816 500.621C747.727 499.512 750.784 499.922 753.783 499.803C758.187 499.628 762.599 499.512 767.018 499.456C768.788 499.421 770.526 499.24 772.283 499.456C773.93 499.669 774.746 501.085 775.079 502.726C775.545 505.034 774.762 506.966 773.43 508.69C772.354 510.08 770.739 510.879 769.047 511.135C765.257 511.705 761.436 512.089 757.624 512.497C756.768 512.589 755.878 512.382 755.026 512.497C754.798 512.544 754.584 512.642 754.4 512.784C754.215 512.926 754.066 513.108 753.962 513.316C753.052 515.787 752.228 518.29 751.382 520.783C751.019 521.853 751.25 522.508 752.208 523.175C755.639 525.565 759.038 528.018 761.806 531.178C763.575 533.203 765.265 535.354 766.627 537.662C767.719 539.502 768.272 541.663 769.055 543.688C769.29 544.291 769.509 545.05 770.343 544.693C771.05 544.391 771.146 543.652 770.861 542.963C770.134 541.179 769.393 539.401 768.617 537.64C768.374 537.085 768.521 536.794 769.067 536.698C769.397 536.618 769.742 536.618 770.072 536.698C771.168 537.067 772.167 536.804 773.191 536.406C774.159 536.029 774.336 536.192 774.318 537.262C774.256 540.878 778.358 544.484 781.702 543.734C782.153 543.627 782.575 543.421 782.938 543.132C785.592 540.986 787.956 538.503 789.968 535.746C790.358 535.215 790.812 534.727 791.238 534.223C791.664 533.719 791.477 533.337 791.049 533.018C790.587 532.676 790.223 532.793 789.886 533.291C787.811 536.342 785.467 539.158 782.556 541.46C781.003 542.692 778.739 542.465 777.319 540.396C775.712 538.032 775.405 535.488 776.791 532.749C778.988 528.408 781.728 524.424 784.522 520.479C786.224 518.079 788.357 516.12 791.376 515.401C793.13 514.983 795.49 516.048 796.348 517.709C796.828 518.637 797.429 519.517 797.826 520.469C798.831 522.892 799.232 525.439 799.251 528.062C799.269 530.085 799.516 532.11 799.484 534.131C799.429 537.391 799.311 540.655 799.058 543.905C798.887 546.115 797.631 547.975 796.601 549.861C795.597 551.681 794.391 553.384 793.264 555.126C792.101 556.912 790.84 558.637 789.757 560.469C788.311 562.916 786.967 565.427 785.643 567.944C785.332 568.54 785.168 569.203 785.165 569.876C785.183 571.483 784.418 572.981 784.745 574.683C785.017 576.089 784.745 577.594 784.643 579.05C784.601 579.618 785.286 580.456 784.205 580.723C783.602 580.87 782.95 580.848 782.319 580.9L782.309 580.787Z" fill="#291647" fill-opacity="0.92"/>
</g>
<defs>
<filter id="filter0_f" x="730.496" y="498.744" width="69.5981" height="82.7636" filterUnits="userSpaceOnUse" color-interpolation-filters="sRGB">
<feFlood flood-opacity="0" result="BackgroundImageFix"/>
<feBlend mode="normal" in="SourceGraphic" in2="BackgroundImageFix" result="shape"/>
<feGaussianBlur stdDeviation="0.303811" result="effect1_foregroundBlur"/>
</filter>
</defs>
</svg>
